<?xml version="1.0" standalone="no"?>
<!DOCTYPE svg PUBLIC "-//W3C//DTD SVG 20010904//EN"
 "http://www.w3.org/TR/2001/REC-SVG-20010904/DTD/svg10.dtd">
<svg version="1.0" xmlns="http://www.w3.org/2000/svg"
 width="288.000000pt" height="288.000000pt" viewBox="0 0 288.000000 288.000000"
 preserveAspectRatio="xMidYMid meet">
<metadata>
Created by potrace 1.14, written by Peter Selinger 2001-2017
</metadata>
<g transform="translate(0.000000,288.000000) scale(0.100000,-0.100000)"
fill="#000000" stroke="none">
<path d="M0 2865 c0 -16 16 -21 100 -30 133 -14 170 -22 189 -40 30 -26 93
-143 89 -163 -2 -10 -15 7 -33 46 -46 102 -81 122 -248 145 l-97 14 0 -104 c0
-95 2 -104 18 -99 53 16 77 17 123 6 41 -10 65 -25 119 -76 54 -51 74 -64 99
-64 19 0 30 4 26 10 -3 5 0 7 8 5 7 -3 22 3 32 15 10 11 23 20 28 20 6 0 -2
-15 -18 -32 l-30 -33 29 27 c21 19 30 38 32 69 3 25 13 52 24 64 22 23 26 45
9 45 -9 0 -9 4 0 14 8 10 5 22 -14 50 -35 52 -36 78 -5 86 14 3 26 14 28 23 5
27 -44 21 -73 -8 -14 -13 -25 -18 -25 -12 0 7 5 18 12 25 9 9 -36 12 -205 12
-182 -1 -217 -3 -217 -15z m428 -81 c-4 -3 -12 5 -18 18 -12 22 -12 22 6 6 10
-10 15 -20 12 -24z m46 -123 c3 -5 -3 -11 -15 -14 -16 -4 -18 -3 -8 9 13 16
16 17 23 5z"/>
<path d="M540 2762 c0 -170 -8 -188 -153 -359 -32 -37 -72 -97 -90 -133 -29
-59 -32 -73 -31 -160 0 -114 19 -165 90 -240 64 -69 124 -100 297 -155 105
-34 172 -62 230 -97 45 -28 111 -65 147 -83 82 -41 93 -55 133 -151 30 -71 38
-82 96 -123 71 -52 78 -62 97 -140 22 -91 18 -123 -19 -177 -94 -137 -91 -183
21 -306 41 -46 65 -81 72 -110 6 -24 18 -62 26 -86 20 -60 18 -69 -23 -136
-34 -55 -36 -64 -37 -146 -1 -79 -4 -90 -29 -123 l-28 -37 120 0 120 0 11 38
c32 113 62 318 67 457 7 177 -5 297 -46 456 -43 173 -98 302 -296 694 -227
450 -325 697 -445 1118 l-34 117 -148 0 -148 0 0 -118z"/>
<path d="M2050 2875 c0 -16 165 -715 265 -1125 209 -855 322 -1344 382 -1650
l19 -95 82 -3 82 -3 0 1441 0 1440 -415 0 c-228 0 -415 -2 -415 -5z"/>
<path d="M494 2806 c-3 -14 -2 -31 3 -40 6 -11 9 -3 9 24 2 46 -3 51 -12 16z"/>
<path d="M490 2619 c-7 -11 -10 -23 -7 -25 2 -2 9 7 15 21 14 30 7 33 -8 4z"/>
<path d="M52 2485 l-52 -24 0 -288 0 -289 58 -56 c71 -70 151 -121 231 -148
50 -17 83 -20 174 -18 92 2 118 -1 147 -16 27 -14 32 -15 20 -3 -8 9 -78 34
-155 57 -77 22 -168 54 -202 70 -136 67 -221 184 -231 318 -12 174 82 297 278
364 l65 22 -45 7 c-25 4 -63 12 -85 18 -68 19 -144 13 -203 -14z"/>
<path d="M0 1739 c0 -12 9 -21 28 -25 57 -12 69 -23 22 -21 l-45 2 -3 -754
c-1 -497 1 -758 8 -765 5 -5 10 -15 10 -21 0 -5 -5 -3 -10 5 -6 10 -9 -9 -8
-62 1 -65 4 -75 17 -71 16 6 111 64 111 68 0 1 -14 1 -31 -1 -19 -2 -28 0 -24
7 4 5 15 7 25 4 12 -4 22 1 29 12 8 14 10 15 11 3 0 -12 2 -13 9 -1 5 7 7 30
4 51 -7 48 10 80 42 80 14 0 25 -4 25 -8 0 -14 34 -10 52 6 10 8 18 11 18 6 0
-16 44 55 95 154 l50 97 50 -3 c42 -2 137 -15 206 -27 20 -4 89 -33 89 -38 0
-2 -24 4 -52 14 -113 38 -197 34 -269 -14 -19 -12 -59 -61 -90 -108 -39 -59
-77 -101 -122 -137 -36 -28 -80 -69 -98 -92 -20 -25 -56 -52 -93 -70 l-61 -29
41 -1 c51 0 97 34 269 200 133 128 191 164 295 186 118 24 226 0 354 -80 144
-90 202 -187 166 -280 -9 -25 -8 -26 25 -26 24 0 35 5 38 18 4 16 5 16 6 0 1
-14 10 -18 46 -18 43 0 45 1 45 30 0 35 22 49 46 29 14 -11 18 -10 29 5 15 20
9 49 -9 39 -6 -3 -3 3 7 15 24 27 16 53 -35 115 -44 52 -45 75 -8 115 27 29
73 29 93 -1 14 -19 18 -20 27 -7 6 8 8 23 6 32 -2 10 0 20 5 23 14 9 -13 43
-43 56 -33 14 -38 48 -8 56 11 3 20 8 20 12 0 14 -41 51 -55 51 -8 0 -15 8
-15 19 0 27 -24 43 -53 36 -18 -5 -25 -2 -29 12 -4 13 -24 25 -61 37 -100 31
-137 77 -137 168 1 100 60 178 135 178 23 0 27 3 15 10 -12 8 -9 10 11 10 28
0 55 -24 61 -55 2 -11 11 -21 20 -23 19 -4 32 18 42 67 5 28 2 37 -24 61 -32
30 -39 50 -16 50 28 0 26 19 -6 52 -18 18 -36 32 -41 30 -5 -1 -15 2 -23 9 -7
6 -17 8 -22 5 -5 -3 -33 -6 -62 -7 -46 -2 -56 1 -76 24 -33 38 -17 89 34 108
20 8 23 14 18 37 -4 15 -18 36 -31 47 -14 12 -25 27 -25 34 0 8 -7 11 -20 8
-11 -3 -18 -1 -14 4 8 14 -33 11 -72 -6 -45 -19 -74 -6 -74 33 0 34 -23 68
-50 75 -11 3 -18 1 -14 -4 3 -5 0 -9 -5 -9 -6 0 -11 7 -11 15 0 20 -50 20 -76
0 -28 -21 -61 -18 -98 10 -18 14 -48 27 -67 30 -26 4 -29 3 -14 -4 12 -6 15
-10 6 -10 -8 -1 -22 6 -31 14 -16 14 -22 14 -61 -1 -24 -9 -67 -19 -95 -21
-45 -4 -61 0 -135 38 -46 23 -119 56 -161 74 -72 30 -78 32 -78 14z m225 -99
c6 0 32 -18 59 -40 61 -51 96 -53 145 -7 20 17 28 23 20 12 -9 -11 -14 -27
-12 -35 4 -12 3 -13 -5 -1 -8 11 -11 10 -16 -5 -3 -11 -22 -24 -43 -31 -35
-11 -38 -10 -65 19 -15 17 -28 26 -28 22 -1 -5 -8 3 -16 19 -12 23 -24 31 -36
26 -2 -1 -28 10 -59 24 -44 19 -60 22 -69 14 -10 -9 -11 -9 -6 1 4 7 2 12 -6
12 -11 0 -11 2 0 9 8 5 35 -1 70 -15 31 -13 62 -24 67 -24z m-100 -11 c11 -17
-1 -21 -15 -4 -8 9 -8 15 -2 15 6 0 14 -5 17 -11z m128 -105 c-9 -15 -19 -21
-21 -15 -4 13 16 41 29 41 5 0 2 -12 -8 -26z m173 -18 c-3 -13 -13 -26 -21
-30 -14 -5 -14 -4 0 16 8 13 15 32 16 43 0 11 3 14 6 7 3 -7 2 -23 -1 -36z
m279 5 c-12 -24 -22 -31 -44 -31 -16 0 -35 7 -42 16 -12 15 -11 16 9 10 34
-11 70 1 77 25 4 11 9 18 12 16 2 -3 -3 -19 -12 -36z m143 11 c-32 -19 -34
-31 -13 -72 21 -41 59 -49 93 -19 19 16 17 13 -5 -11 -29 -31 -34 -33 -56 -21
-28 15 -57 61 -57 89 0 25 25 52 48 52 12 0 9 -6 -10 -18z m216 -68 c3 -8 2
-12 -4 -9 -6 3 -10 10 -10 16 0 14 7 11 14 -7z m-41 -74 c-24 -14 -33 -27 -34
-47 0 -16 -3 -22 -6 -15 -9 23 7 63 30 72 38 15 43 11 10 -10z m80 -197 c-13
-2 -33 -2 -45 0 -13 2 -3 4 22 4 25 0 35 -2 23 -4z m175 -43 c-7 -10 -14 -17
-17 -15 -4 4 18 35 25 35 2 0 -1 -9 -8 -20z m-11 -77 c10 -10 14 -15 8 -11 -6
4 -22 12 -36 17 -15 6 -18 10 -8 10 9 1 25 -7 36 -16z m-167 4 c0 -2 -13 -13
-28 -24 -26 -19 -28 -19 -28 -2 0 9 4 15 8 13 4 -3 16 0 25 5 20 11 23 13 23
8z m-126 -53 c3 -8 2 -12 -4 -9 -6 3 -10 10 -10 16 0 14 7 11 14 -7z m334 -9
c-3 -3 -9 2 -12 12 -6 14 -5 15 5 6 7 -7 10 -15 7 -18z m-268 1 c0 -2 -7 -7
-16 -10 -8 -3 -12 -2 -9 4 6 10 25 14 25 6z m-41 -187 c14 -41 7 -36 -17 11
-11 23 -14 36 -7 30 8 -6 18 -24 24 -41z m-172 -81 c-3 -8 -6 -5 -6 6 -1 11 2
17 5 13 3 -3 4 -12 1 -19z m173 -4 c0 -8 -5 -12 -10 -9 -6 4 -8 11 -5 16 9 14
15 11 15 -7z m-690 -23 c0 -5 -9 -7 -20 -4 -11 3 -20 7 -20 9 0 2 9 4 20 4 11
0 20 -4 20 -9z m850 -54 l25 -4 -26 -2 c-15 0 -33 7 -40 17 -12 15 -12 16 1 5
8 -6 26 -13 40 -16z m-765 -139 c-16 -69 -47 -171 -55 -180 -3 -5 -4 9 -2 30
3 20 9 40 14 43 5 3 11 29 12 57 2 42 26 102 40 102 2 0 -2 -24 -9 -52z m323
-18 c12 -6 26 -8 31 -6 5 3 11 -1 14 -8 5 -12 0 -13 -26 -4 -37 13 -65 35 -79
63 -7 14 -3 12 14 -7 12 -14 33 -31 46 -38z m633 6 c-9 -11 -9 -20 -2 -35 6
-11 11 -23 11 -28 -1 -4 -8 5 -16 20 -12 22 -13 31 -3 43 6 8 14 14 16 14 3 0
0 -6 -6 -14z m-441 -21 c8 -10 10 -19 4 -25 -5 -5 -14 1 -21 16 -12 27 -2 32
17 9z m-103 -21 c-3 -3 -12 -4 -19 -1 -8 3 -5 6 6 6 11 1 17 -2 13 -5z m-467
-38 c0 -2 -7 -7 -16 -10 -8 -3 -12 -2 -9 4 6 10 25 14 25 6z m663 -27 c18 0
26 -3 19 -6 -7 -3 -29 -2 -49 2 -27 5 -33 9 -22 15 8 6 15 6 17 0 2 -6 18 -10
35 -11z m398 -16 c13 -17 13 -17 -6 -3 -11 8 -22 16 -24 17 -2 2 0 3 6 3 6 0
17 -8 24 -17z m-216 -32 c-3 -6 -11 -11 -17 -11 -6 0 -6 6 2 15 14 17 26 13
15 -4z m-1095 -11 c0 -5 -5 -10 -11 -10 -5 0 -7 5 -4 10 3 6 8 10 11 10 2 0 4
-4 4 -10z m105 -50 c3 -5 -1 -10 -10 -10 -9 0 -13 5 -10 10 3 6 8 10 10 10 2
0 7 -4 10 -10z m1136 -207 c13 -17 13 -17 -6 -3 -11 8 -22 16 -24 17 -2 2 0 3
6 3 6 0 17 -8 24 -17z m-1269 -25 c-7 -7 -12 -8 -12 -2 0 14 12 26 19 19 2 -3
-1 -11 -7 -17z m-22 -8 c0 -5 -8 -10 -17 -10 -15 0 -16 2 -3 10 19 12 20 12
20 0z"/>
<path d="M660 1620 c8 -5 26 -10 39 -10 32 0 24 6 -19 14 -25 4 -31 3 -20 -4z"/>
<path d="M748 1623 c7 -3 16 -2 19 1 4 3 -2 6 -13 5 -11 0 -14 -3 -6 -6z"/>
<path d="M610 261 c-126 -34 -263 -112 -370 -210 l-55 -50 88 -1 87 0 53 43
c74 60 165 98 256 107 75 7 75 7 19 9 l-58 1 0 49 0 50 43 5 c23 4 67 8 97 9
44 3 39 4 -20 5 -45 0 -101 -6 -140 -17z"/>
<path d="M270 235 c-14 -17 -56 -20 -65 -5 -4 7 -13 7 -26 0 -13 -8 -19 -21
-19 -48 0 -35 1 -36 15 -15 8 11 32 28 53 36 32 13 75 47 59 47 -2 0 -10 -7
-17 -15z"/>
</g>
</svg>
